<svg width="26" height="25" fill="none" xmlns="http://www.w3.org/2000/svg"><path d="M13 25a12.376 12.376 0 01-5.455-1.25 12.557 12.557 0 01-1.781-1.056l-.171-.125a12.61 12.61 0 01-3.705-4.34A12.363 12.363 0 01.5 12.5C.5 5.597 6.097 0 13 0c6.904 0 12.5 5.597 12.5 12.5a12.363 12.363 0 01-1.386 5.727 12.613 12.613 0 01-3.7 4.338c-.584.427-1.204.804-1.853 1.125l-.1.05A12.375 12.375 0 0113 25zm0-6.25a4.988 4.988 0 00-4.446 2.709 10.018 10.018 0 008.892 0v-.007A4.984 4.984 0 0013 18.75zm0-2.5a7.519 7.519 0 016.536 3.82l.019-.016.017-.015-.02.018-.013.01a10 10 0 10-13.075 0A7.52 7.52 0 0113 16.25zM13 15a5 5 0 110-10 5 5 0 010 10zm0-7.5a2.5 2.5 0 100 5 2.5 2.5 0 000-5z" fill="#7ED1DC"/></svg>