<svg width="32" height="21" fill="none" xmlns="http://www.w3.org/2000/svg"><path d="M22.818.955H3.728A2.727 2.727 0 001 3.682v12.273h2.727a4.085 4.085 0 004.091 4.09 4.085 4.085 0 004.091-4.09h8.182a4.085 4.085 0 004.09 4.09 4.085 4.085 0 004.092-4.09H31V9.136L22.818.955zm-2.727 2.727h1.363l4.091 4.09h-5.454v-4.09zm-8.182 0h5.455v4.09h-5.455v-4.09zm-8.182 0h5.455v4.09H3.727v-4.09zm4.091 13.977a1.705 1.705 0 11.001-3.41 1.705 1.705 0 010 3.41zm16.364 0a1.705 1.705 0 11.001-3.41 1.705 1.705 0 01-.001 3.41zm4.09-4.432H27.21a4.072 4.072 0 00-3.027-1.363 4.07 4.07 0 00-3.027 1.363h-10.31a4.05 4.05 0 00-3.027-1.363 4.05 4.05 0 00-3.027 1.363H3.727V10.5h24.546v2.727z" fill="#7ED1DC" stroke="#fff" stroke-width=".6"/></svg>