<svg width="26" height="33" fill="none" xmlns="http://www.w3.org/2000/svg"><path d="M13 .61c6.892 0 12.5 5.569 12.5 12.414 0 4.586-2.517 8.598-6.25 10.748v8.618L13 29.286 6.75 32.39v-8.62C3.017 21.622.5 17.61.5 13.024.5 6.179 6.107.61 13 .61zM9.25 28.373L13 26.51l3.75 1.863v-3.506c-1.184.37-2.444.571-3.75.571s-2.566-.2-3.75-.571v3.506zM13 22.955c5.514 0 10-4.455 10-9.931 0-5.476-4.486-9.931-10-9.931S3 7.548 3 13.024c0 5.476 4.486 9.931 10 9.931zm-2.3-12.6L13 5.728l2.3 4.627 5.141.742-3.72 3.602.878 5.086L13 17.384l-4.6 2.4.88-5.085-3.721-3.602 5.141-.742zm1.021 4.891L13 14.578l1.279.668-.245-1.414 1.035-1.001-1.43-.207L13 11.338l-.64 1.286-1.43.207 1.036 1.001-.245 1.414z" fill="#7ED1DC"/></svg>