<svg width="28" height="27" fill="none" xmlns="http://www.w3.org/2000/svg"><path d="M26.5 17.919a8.1 8.1 0 00-5.918-7.787C20.365 5.06 16.171 1 11.046 1 5.782 1 1.5 5.282 1.5 10.546c0 1.715.457 3.386 1.324 4.852l-1.289 4.659 4.659-1.289a9.51 9.51 0 004.438 1.314A8.1 8.1 0 0018.419 26a8.055 8.055 0 004.112-1.123l3.934 1.088-1.088-3.934a8.052 8.052 0 001.123-4.112v0zm-20.075-.735l-2.789.772.772-2.79-.176-.274a8.054 8.054 0 01-1.267-4.346c0-4.456 3.625-8.081 8.08-8.081 4.457 0 8.082 3.625 8.082 8.08 0 4.457-3.625 8.082-8.081 8.082A8.055 8.055 0 016.7 17.36l-.275-.176zm17.939 6.68l-2.07-.573-.276.18a6.59 6.59 0 01-3.6 1.064 6.633 6.633 0 01-6.272-4.507 9.564 9.564 0 008.382-8.382 6.633 6.633 0 014.507 6.273 6.59 6.59 0 01-1.064 3.6l-.18.276.573 2.069z" fill="#7ED1DC" stroke="#7ED1DC"/></svg>