<svg width="26" height="25" fill="none" xmlns="http://www.w3.org/2000/svg"><path d="M19.704 25h-.037a20.163 20.163 0 01-13.51-5.654A20.142 20.142 0 01.5 5.842a2.631 2.631 0 01.771-1.889L4.841.386a1.315 1.315 0 011.86 0l5.26 5.261a1.315 1.315 0 010 1.86L9.864 9.602a9.866 9.866 0 002.096 3.936 9.845 9.845 0 003.93 2.098l2.105-2.097a1.315 1.315 0 011.86 0l5.26 5.261a1.315 1.315 0 010 1.86l-3.569 3.569a2.6 2.6 0 01-1.841.77zM5.768 3.176h-.006L3.13 5.813a17.421 17.421 0 004.882 11.672 17.43 17.43 0 0011.671 4.882l2.64-2.637-3.41-3.4-1.7 1.7a1.298 1.298 0 01-1.196.356 13.416 13.416 0 01-5.919-2.987A13.416 13.416 0 017.112 9.48a1.315 1.315 0 01.36-1.202l1.699-1.7-3.403-3.401z" fill="#7ED1DC"/></svg>