<svg width="24" height="27" fill="none" xmlns="http://www.w3.org/2000/svg"><path d="M22.063 26.859H1.938A1.438 1.438 0 01.5 25.42V11.56c.022-.353.172-.685.421-.935L10.984.563a1.437 1.437 0 012.034 0L23.08 10.625c.27.27.421.635.42 1.017v13.78c0 .793-.644 1.437-1.438 1.437zM12 3.612l-8.625 8.625v11.747h17.25V12.237L12 3.612zm0 17.495a32.928 32.928 0 00-.995-.836l-.067-.055C9.274 18.86 7.2 17.17 7.2 15.07a2.588 2.588 0 012.644-2.586 2.887 2.887 0 012.156.959 2.888 2.888 0 012.156-.96 2.588 2.588 0 012.638 2.588c0 2.108-2.087 3.808-3.763 5.175l-.082.068c-.34.279-.663.542-.95.796l.001-.002z" fill="#7ED1DC"/></svg>