<svg width="29" height="28" fill="none" xmlns="http://www.w3.org/2000/svg"><path fill-rule="evenodd" clip-rule="evenodd" d="M11.872 8.258h4.922v3.281h3.282v4.922h-3.282v3.281h-4.922v-3.281h-3.28v-4.922h3.28V8.258zm6.563 6.562v-1.64h-3.281V9.898h-1.64v3.282h-3.282v1.64h3.281v3.282h1.64V14.82h3.282z" fill="#7ED1DC"/><path fill-rule="evenodd" clip-rule="evenodd" d="M14.333 0c3.74 0 7.256 1.456 9.9 4.1a13.909 13.909 0 014.1 9.9 13.91 13.91 0 01-4.1 9.9 13.908 13.908 0 01-9.9 4.1H1.171l3.171-4.193a13.927 13.927 0 01-2.782-4.07A13.89 13.89 0 01.333 14c0-3.74 1.457-7.255 4.1-9.9a13.908 13.908 0 019.9-4.1zM4.47 26.36h9.864c6.815 0 12.36-5.545 12.36-12.36 0-6.815-5.545-12.36-12.36-12.36-6.816 0-12.36 5.546-12.36 12.36 0 3.457 1.463 6.78 4.015 9.117l.55.504-2.07 2.738z" fill="#7ED1DC"/></svg>