<svg width="33" height="22" fill="none" xmlns="http://www.w3.org/2000/svg"><path d="M12.977 11.83h-1.87V9.535H8.812v-1.87h2.295V5.37h1.87v2.294h2.295v1.871h-2.295v2.295z" fill="#7ED1DC"/><path fill-rule="evenodd" clip-rule="evenodd" d="M30.293 9.371a3.691 3.691 0 012.374 3.436v5.88h-4.029a3.613 3.613 0 01-3.483 2.672 3.614 3.614 0 01-3.484-2.672H10.76a3.613 3.613 0 01-3.485 2.672 3.614 3.614 0 01-3.483-2.672H.667V.64h22.75v3.295h3.572l2.582 5.163.722.272zm-6.875-.484h3.956l-1.541-3.08h-2.415v3.08zM5.54 17.75c0 .958.779 1.737 1.736 1.737.958 0 1.737-.779 1.737-1.737a1.74 1.74 0 00-1.737-1.737A1.74 1.74 0 005.54 17.75zm-1.748-.935a3.614 3.614 0 013.484-2.672 3.614 3.614 0 013.484 2.672h10.787V2.512H2.537v14.304h1.256zm19.626.935c0 .958.779 1.737 1.737 1.737a1.74 1.74 0 001.737-1.737 1.74 1.74 0 00-1.737-1.737 1.74 1.74 0 00-1.737 1.737zm5.22-.935h2.158v-4.01c0-.744-.468-1.421-1.165-1.685l-.962-.364h-5.251v3.834a3.584 3.584 0 011.737-.447 3.614 3.614 0 013.483 2.672z" fill="#7ED1DC"/></svg>