<svg width="26" height="32" fill="none" xmlns="http://www.w3.org/2000/svg"><path fill-rule="evenodd" clip-rule="evenodd" d="M25.29 13.235h-4.165v-4.22c0-3.811-2.705-7.153-6.432-7.948a8.068 8.068 0 00-3.386 0c-3.727.795-6.432 4.137-6.432 7.948v4.22H.71a.71.71 0 000 1.42h24.58a.71.71 0 100-1.42zM14.397 2.457c3.076.655 5.308 3.413 5.308 6.558v1.955H6.295V9.015c0-3.145 2.232-5.903 5.308-6.558a6.666 6.666 0 012.794 0z" fill="#7ED1DC"/><path d="M20.867 23.286a.71.71 0 00-.764.118l-7.04 6.288h-.126l-7.04-6.288a.71.71 0 00-1.184.53v6.468c0 .392.318.71.71.71h15.154a.71.71 0 00.71-.71v-6.468a.711.711 0 00-.42-.648zM9.34 21.412H8.097a2.99 2.99 0 01-2.985-2.701L4.8 15.586h16.4l-.312 3.125a2.99 2.99 0 01-2.985 2.701H16.66a2.981 2.981 0 01-2.966-2.555l-.278-1.85h-.832l-.278 1.85a2.981 2.981 0 01-2.966 2.555z" fill="#7ED1DC"/></svg>