<svg width="15" height="15" fill="none" xmlns="http://www.w3.org/2000/svg"><path d="M4.112 6.39h0c0 .642.227 1.331.582 2.01.352.673.815 1.304 1.245 1.818A16.034 16.034 0 007.5 11.835a16.042 16.042 0 001.56-1.617L4.113 6.39zm0 0a3.388 3.388 0 015.785-2.396h0M4.113 6.39l5.786-2.395m0 0c.636.633.993 1.495.99 2.394v.001m-.99-2.395l.99 2.395m0 0c0 .642-.227 1.331-.582 2.01m.582-2.01l-.582 2.01m0 0c-.352.673-.815 1.304-1.245 1.818l1.245-1.819zM7.5 4.223a2.166 2.166 0 100 4.332 2.166 2.166 0 000-4.332z" stroke="#fff"/></svg>