<svg width="35" height="35" fill="none" xmlns="http://www.w3.org/2000/svg"><g clip-path="url(#clip0)" fill="#000"><path d="M32.577 25.226a17.364 17.364 0 00-9.856-7.791 1.164 1.164 0 00-1.163.282c-1.433 1.41-3.152 2.575-4.042 3.137-.964-.636-2.87-1.948-4.074-3.136a1.16 1.16 0 00-1.166-.283 17.348 17.348 0 00-9.854 7.79 1.163 1.163 0 000 1.181c3.11 5.298 8.886 8.588 15.076 8.588 6.19 0 11.969-3.29 15.08-8.587a1.165 1.165 0 000-1.181zM17.498 32.66c-5.132 0-9.934-2.605-12.698-6.845a15.01 15.01 0 017.53-5.94c1.852 1.657 4.428 3.272 4.549 3.346a1.16 1.16 0 001.198.022c.107-.061 2.468-1.424 4.593-3.368a15.03 15.03 0 017.528 5.94c-2.765 4.24-7.567 6.845-12.7 6.845z"/><path d="M13.578 17.88a1.17 1.17 0 00-1.625-.29c-2.332 1.627-4.369 4.635-5.89 8.697a36.99 36.99 0 00-.91 2.78 1.168 1.168 0 002.245.64c.26-.91.545-1.785.851-2.6 1.354-3.619 3.096-6.247 5.04-7.602.529-.37.658-1.096.29-1.625zm16.305 11.189a35.837 35.837 0 00-.91-2.784c-1.517-4.059-3.553-7.067-5.889-8.696a1.168 1.168 0 00-1.336 1.914c1.917 1.338 3.707 4.037 5.04 7.6.312.836.596 1.711.847 2.6a1.169 1.169 0 001.441.805c.62-.175.98-.82.806-1.44zM17.497 0C13.25 0 9.796 3.482 9.796 7.763v2.1c0 4.28 3.454 7.763 7.701 7.763S25.2 14.144 25.2 9.863v-2.1C25.2 3.483 21.744 0 17.497 0zm5.37 9.863c0 2.994-2.409 5.43-5.37 5.43-2.96 0-5.368-2.436-5.368-5.43v-2.1c0-2.994 2.408-5.43 5.368-5.43 2.961 0 5.37 2.436 5.37 5.43v2.1zm-5.37 10.823c-.644 0-1.167.522-1.167 1.167v11.98a1.166 1.166 0 102.334 0v-11.98c0-.645-.523-1.167-1.167-1.167z"/><path d="M25.121 26.132h-4.355a1.166 1.166 0 100 2.334h4.355a1.166 1.166 0 100-2.334z"/><path d="M22.943 23.955c-.645 0-1.167.522-1.167 1.167v4.355a1.166 1.166 0 102.334 0v-4.355c0-.645-.522-1.167-1.167-1.167z"/></g><defs><clipPath id="clip0"><path fill="#fff" d="M0 0h35v35H0z"/></clipPath></defs></svg>