<svg width="36" height="35" fill="none" xmlns="http://www.w3.org/2000/svg"><g clip-path="url(#clip0)" fill="#000"><path d="M26.858 14.367c0-4.89-3.978-8.867-8.867-8.867-4.889 0-8.866 3.978-8.866 8.867 0 4.889 3.977 8.866 8.866 8.866 4.89 0 8.867-3.977 8.867-8.866zm-8.867 6.825a6.833 6.833 0 01-6.825-6.825 6.833 6.833 0 016.825-6.825 6.833 6.833 0 016.825 6.825 6.833 6.833 0 01-6.825 6.825z"/><path d="M29.52 21.413l.275-.28a6.293 6.293 0 001.722-5.293l-.126-.851c-.06-.41-.06-.825 0-1.234l.127-.849a6.292 6.292 0 00-1.722-5.3l-.597-.609a4.212 4.212 0 01-.73-1.005l-.39-.752a6.29 6.29 0 00-4.517-3.282l-.833-.14a4.212 4.212 0 01-1.185-.386l-.756-.377a6.29 6.29 0 00-5.583-.003l-.759.378c-.373.185-.77.315-1.18.383l-.843.142a6.292 6.292 0 00-4.51 3.272l-.397.76a4.213 4.213 0 01-.726.998l-.602.615a6.293 6.293 0 00-1.722 5.293l.125.852c.06.41.06.824 0 1.234l-.126.848a6.291 6.291 0 001.721 5.3l.278.284L.5 27.374l5.269 1.982 1.935 5.236 7.107-7.106.384.192a6.262 6.262 0 002.794.654 6.26 6.26 0 002.789-.652l.392-.195 7.115 7.114 1.929-5.304 5.286-1.903-5.98-5.98zM7.36 27.774L4.183 26.58l3.504-3.504.217.418a6.29 6.29 0 004.516 3.283l.184.03-4.09 4.09-1.154-3.122zm12.508-1.92a4.238 4.238 0 01-3.762-.002l-.756-.378a6.252 6.252 0 00-1.759-.572l-.833-.14a4.239 4.239 0 01-3.043-2.212l-.391-.751a6.254 6.254 0 00-1.083-1.492l-.597-.61a4.24 4.24 0 01-1.16-3.57l.126-.849c.09-.607.09-1.223 0-1.83l-.125-.853a4.24 4.24 0 011.16-3.566l.603-.615c.43-.439.792-.937 1.077-1.481l.397-.76a4.24 4.24 0 013.04-2.205l.841-.142c.61-.102 1.2-.293 1.753-.569l.758-.377a4.219 4.219 0 011.88-.44 4.22 4.22 0 011.882.441l.757.378c.555.277 1.146.47 1.758.572l.834.14a4.239 4.239 0 013.042 2.212l.392.751c.285.549.65 1.05 1.082 1.492l.598.61a4.24 4.24 0 011.16 3.57l-.126.85a6.254 6.254 0 00-.001 1.83l.125.852a4.24 4.24 0 01-1.16 3.567l-.603.614c-.43.439-.792.937-1.076 1.481l-.398.76a4.24 4.24 0 01-3.039 2.205l-.842.142a6.25 6.25 0 00-1.753.569l-.758.378zm8.754 1.845l-1.16 3.191-4.082-4.081.179-.03a6.292 6.292 0 004.51-3.272l.226-.433 3.487 3.487-3.16 1.138z"/><path d="M20.025 11.908l-2.034-2.323-2.034 2.323-2.838 1.217 1.58 2.652.281 3.075 3.011-.683 3.011.683.28-3.075 1.581-2.652-2.838-1.217zm-.733 3.223l-.111 1.214-1.19-.27-1.19.27-.11-1.214-.625-1.049 1.122-.48.803-.918.804.918 1.121.48-.625 1.048z"/></g><defs><clipPath id="clip0"><path fill="#fff" transform="translate(.5)" d="M0 0h35v35H0z"/></clipPath></defs></svg>