<svg width="35" height="35" fill="none" xmlns="http://www.w3.org/2000/svg"><path d="M14.407 15.814h-2.051v-2.06h-2.06v-2.05h2.06v-2.06h2.05v2.06h2.06v2.05h-2.06v2.06z" fill="#000"/><path fill-rule="evenodd" clip-rule="evenodd" d="M30.49 8.615l4.51 9.02v9.505h-3.019a3.713 3.713 0 01-3.562 2.682 3.713 3.713 0 01-3.562-2.682h-9.35a3.713 3.713 0 01-3.562 2.682 3.696 3.696 0 01-2.682-1.151 3.696 3.696 0 01-2.682 1.151 3.713 3.713 0 01-3.562-2.682H0V4.496h26.763v4.119h3.727zm1.826 8.237l-3.094-6.186h-2.46v6.186h5.553zm-7.604 2.058V6.547H2.05V18.91h22.66zm0 2.05H2.05v4.13h.968a3.713 3.713 0 013.562-2.682 3.7 3.7 0 012.682 1.151 3.696 3.696 0 012.682-1.151 3.713 3.713 0 013.562 2.682h9.205v-4.13zM4.924 26.115a1.66 1.66 0 001.657 1.657c.913 0 1.656-.744 1.656-1.657s-.743-1.657-1.656-1.657a1.66 1.66 0 00-1.657 1.657zm5.364 0a1.66 1.66 0 001.657 1.657c.913 0 1.656-.744 1.656-1.657s-.743-1.657-1.656-1.657a1.66 1.66 0 00-1.657 1.657zm16.475 0c0 .913.743 1.657 1.656 1.657.914 0 1.657-.744 1.657-1.657s-.743-1.657-1.657-1.657c-.913 0-1.656.744-1.656 1.657zm1.656-3.707a3.713 3.713 0 013.562 2.682h.968v-6.187h-6.186V22.8a3.683 3.683 0 011.656-.392z" fill="#000"/></svg>