<svg width="36" height="35" fill="none" xmlns="http://www.w3.org/2000/svg"><g clip-path="url(#clip0)" fill="#000"><path d="M30.374 5.126A17.386 17.386 0 0018 0C13.326 0 8.931 1.82 5.626 5.126A17.386 17.386 0 00.5 17.5c0 4.674 1.82 9.069 5.126 12.374A17.386 17.386 0 0018 35c4.674 0 9.069-1.82 12.374-5.126A17.386 17.386 0 0035.5 17.5c0-4.674-1.82-9.069-5.126-12.374zm-1.45 23.298A15.348 15.348 0 0118 32.95a15.348 15.348 0 01-10.924-4.525A15.348 15.348 0 012.55 17.5c0-4.127 1.607-8.006 4.525-10.924A15.348 15.348 0 0118 2.05c4.127 0 8.006 1.607 10.924 4.525A15.348 15.348 0 0133.45 17.5c0 4.127-1.607 8.006-4.525 10.924z"/><path d="M27.912 17.5c0 5.465-4.447 9.912-9.912 9.912-5.466 0-9.912-4.447-9.912-9.912 0-5.466 4.447-9.912 9.912-9.912v1.875l3.652-2.9L18 3.662v1.874c-6.596 0-11.963 5.367-11.963 11.963 0 6.596 5.367 11.963 11.963 11.963 6.596 0 11.963-5.367 11.963-11.963h-2.05z"/><path d="M15.564 18.05a6.4 6.4 0 01.526-.333c.177-.1.346-.204.507-.313.135-.09.264-.187.386-.29a1.652 1.652 0 00.521-.763 1.68 1.68 0 00.078-.53c0-.548-.192-.974-.575-1.28-.383-.306-.945-.459-1.685-.459a4.817 4.817 0 00-1.559.256 3.56 3.56 0 00-.642.29 1.97 1.97 0 00-.473.371l1.159 1.362c.205-.245.403-.422.593-.531.19-.11.391-.164.604-.164.18 0 .322.038.425.115.102.078.154.197.154.358a.304.304 0 01-.043.16.704.704 0 01-.198.178 6.43 6.43 0 01-.459.275 69.23 69.23 0 01-.825.449c-.27.148-.498.3-.681.454a2.044 2.044 0 00-.7 1.187 4.15 4.15 0 00-.077.85h5.088V18.05h-2.124zm7.029.03v-3.901h-1.256l-3.06 3.9v1.642h2.481v1.197h1.835v-1.197h.85v-1.642h-.85zm-1.622 0h-.889l.889-1.16v1.16z"/></g><defs><clipPath id="clip0"><path fill="#fff" transform="translate(.5)" d="M0 0h35v35H0z"/></clipPath></defs></svg>