<svg width="15" height="15" fill="none" xmlns="http://www.w3.org/2000/svg"><path d="M10.182 12.5h-.015a8.066 8.066 0 01-5.405-2.261A8.057 8.057 0 012.5 4.837a1.053 1.053 0 01.308-.756l1.428-1.427a.526.526 0 01.744 0L7.085 4.76a.526.526 0 010 .744l-.84.838a3.95 3.95 0 00.839 1.574c.453.396.99.683 1.572.84l.842-.84a.526.526 0 01.744 0l2.104 2.105a.526.526 0 010 .744l-1.428 1.428a1.04 1.04 0 01-.736.308zM4.607 3.77h-.003L3.552 4.826a6.969 6.969 0 001.953 4.67 6.973 6.973 0 004.669 1.952l1.056-1.055-1.364-1.36-.68.68a.52.52 0 01-.479.142A5.367 5.367 0 016.34 8.66a5.367 5.367 0 01-1.195-2.368.526.526 0 01.143-.481l.68-.68-1.361-1.36z" fill="#fff"/></svg>