<svg width="13" height="14" fill="none" xmlns="http://www.w3.org/2000/svg"><path d="M8.342 9.625a5.003 5.003 0 00-.124-.035 2.019 2.019 0 01-.246-.077C6.78 9.023 5.68 8.39 4.81 7.423 4.315 6.87 3.928 6.25 3.6 5.59c-.139-.28-.259-.569-.378-.858l-.041-.1c-.122-.294.057-.598.246-.819.177-.208.405-.367.651-.484.193-.091.383-.039.523.123.304.349.583.715.81 1.12.138.249.1.553-.152.722-.049.033-.095.07-.14.108l-.034.028a.567.567 0 00-.131.137.372.372 0 00-.025.33c.31.844.834 1.5 1.693 1.854l.037.015c.126.053.253.106.397.09.172-.02.269-.148.366-.276.053-.07.106-.14.171-.194a.51.51 0 01.61-.026c.196.123.386.254.574.387l.039.027c.172.121.343.242.502.38.164.143.22.33.128.525-.17.356-.416.651-.771.84-.069.037-.146.056-.225.076-.036.01-.073.018-.108.03zm1.28-4.107c-.275-1.526-1.557-2.551-3.119-2.594h-.09c-.111.006-.21.097-.189.212.024.13.156.143.264.154l.019.002.165.015c.122.01.244.02.364.042 1.158.204 2.085 1.156 2.247 2.306.024.174.036.35.048.525l.01.133c.008.111.064.215.19.213.12-.001.184-.107.175-.218l-.008-.097a6.89 6.89 0 00-.076-.693z" fill="#000"/><path d="M8.876 5.966l-.002.019a.518.518 0 01-.013.088c-.042.155-.28.174-.334.018a.462.462 0 01-.019-.15 1.84 1.84 0 00-.24-.938 1.758 1.758 0 00-.74-.687 2.147 2.147 0 00-.59-.179 4.202 4.202 0 00-.167-.023l-.101-.013c-.108-.014-.166-.083-.161-.188.005-.1.078-.17.187-.164.358.02.704.096 1.023.263.648.34 1.018.875 1.126 1.59a.594.594 0 01.015.097l.011.178.005.089z" fill="#000"/><path d="M7.69 5.74c.014.12.084.19.215.188a.155.155 0 00.14-.126.502.502 0 00.002-.145v-.005c-.063-.705-.495-1.014-1.1-1.057a.187.187 0 00-.199.149c-.016.096.042.18.145.204.045.011.09.015.137.02a.679.679 0 01.366.125.69.69 0 01.258.401 1.612 1.612 0 01.037.247z" fill="#000"/><path fill-rule="evenodd" clip-rule="evenodd" d="M12.659 3.56l.004.016c.385 1.738.385 3.5 0 5.239l-.004.015c-.311 1.245-1.715 2.58-3.003 2.858l-.015.003a16.928 16.928 0 01-4.067.268L4.15 13.422c-.352.363-.972.116-.972-.387v-1.389c-1.24-.35-2.54-1.625-2.837-2.816l-.004-.015a12.03 12.03 0 010-5.239l.004-.015C.652 2.316 2.056.98 3.344.703L3.359.7A16.872 16.872 0 019.64.7l.015.003c1.288.278 2.692 1.613 3.003 2.858zm-3.242 7.01c.846-.186 1.912-1.195 2.12-2.007a10.904 10.904 0 000-4.735c-.208-.812-1.273-1.821-2.12-2.008a15.714 15.714 0 00-5.834 0c-.847.187-1.912 1.196-2.12 2.008a10.917 10.917 0 000 4.735c.208.812 1.273 1.821 2.12 2.008a.08.08 0 01.066.077v2.302c0 .115.142.172.223.088l2.144-2.177a.08.08 0 01.06-.023 15.72 15.72 0 003.34-.267z" fill="#000"/></svg>