<svg width="14" height="16" fill="none" xmlns="http://www.w3.org/2000/svg"><path fill-rule="evenodd" clip-rule="evenodd" d="M11.959 3.012A6.923 6.923 0 007.029.97C3.19.969.062 4.095.061 7.937c0 1.228.32 2.427.93 3.483l-.989 3.611 3.695-.969a6.96 6.96 0 003.33.848h.002c3.84 0 6.967-3.126 6.969-6.968a6.925 6.925 0 00-2.04-4.93zm-4.93 10.722h-.002c-1.04 0-2.059-.28-2.948-.808l-.211-.125-2.192.575.585-2.137-.138-.22a5.778 5.778 0 01-.886-3.082 5.8 5.8 0 015.795-5.791c1.547 0 3 .603 4.094 1.698a5.757 5.757 0 011.695 4.098 5.8 5.8 0 01-5.792 5.792zm3.177-4.338c-.174-.087-1.03-.509-1.19-.567-.159-.058-.275-.087-.391.087-.116.175-.45.567-.552.683-.101.116-.203.13-.377.044-.174-.087-.735-.271-1.4-.865a5.252 5.252 0 01-.969-1.206c-.101-.174 0-.26.077-.355.188-.234.377-.48.435-.596.058-.116.029-.217-.015-.305-.043-.087-.391-.944-.536-1.292-.142-.34-.285-.294-.392-.3a6.964 6.964 0 00-.334-.005.64.64 0 00-.464.218c-.16.174-.61.595-.61 1.452s.624 1.685.711 1.801c.088.116 1.228 1.875 2.975 2.63.415.179.74.286.992.366a2.38 2.38 0 001.097.069c.335-.05 1.03-.421 1.175-.828.146-.407.146-.755.102-.828-.043-.072-.16-.116-.334-.203z" fill="#000"/></svg>